<svg width="298" height="328" viewBox="0 0 298 328" fill="none" xmlns="http://www.w3.org/2000/svg">
<circle cx="208" cy="2" r="2" fill="#ABB2BF"/>
<circle cx="222.75" cy="2" r="2" fill="#ABB2BF"/>
<circle cx="237.5" cy="2" r="2" fill="#ABB2BF"/>
<circle cx="252.25" cy="2" r="2" fill="#ABB2BF"/>
<circle cx="267" cy="2" r="2" fill="#ABB2BF"/>
<circle cx="208" cy="16.75" r="2" fill="#ABB2BF"/>
<circle cx="222.75" cy="16.75" r="2" fill="#ABB2BF"/>
<circle cx="237.5" cy="16.75" r="2" fill="#ABB2BF"/>
<circle cx="252.25" cy="16.75" r="2" fill="#ABB2BF"/>
<circle cx="267" cy="16.75" r="2" fill="#ABB2BF"/>
<circle cx="208" cy="31.5" r="2" fill="#ABB2BF"/>
<circle cx="222.75" cy="31.5" r="2" fill="#ABB2BF"/>
<circle cx="237.5" cy="31.5" r="2" fill="#ABB2BF"/>
<circle cx="252.25" cy="31.5" r="2" fill="#ABB2BF"/>
<circle cx="267" cy="31.5" r="2" fill="#ABB2BF"/>
<circle cx="208" cy="46.25" r="2" fill="#ABB2BF"/>
<circle cx="222.75" cy="46.25" r="2" fill="#ABB2BF"/>
<circle cx="237.5" cy="46.25" r="2" fill="#ABB2BF"/>
<circle cx="252.25" cy="46.25" r="2" fill="#ABB2BF"/>
<circle cx="267" cy="46.25" r="2" fill="#ABB2BF"/>
<circle cx="208" cy="61" r="2" fill="#ABB2BF"/>
<circle cx="222.75" cy="61" r="2" fill="#ABB2BF"/>
<circle cx="237.5" cy="61" r="2" fill="#ABB2BF"/>
<circle cx="252.25" cy="61" r="2" fill="#ABB2BF"/>
<circle cx="267" cy="61" r="2" fill="#ABB2BF"/>
<circle cx="93" cy="267" r="2" fill="#ABB2BF"/>
<circle cx="107.75" cy="267" r="2" fill="#ABB2BF"/>
<circle cx="122.5" cy="267" r="2" fill="#ABB2BF"/>
<circle cx="137.25" cy="267" r="2" fill="#ABB2BF"/>
<circle cx="152" cy="267" r="2" fill="#ABB2BF"/>
<circle cx="93" cy="281.75" r="2" fill="#ABB2BF"/>
<circle cx="107.75" cy="281.75" r="2" fill="#ABB2BF"/>
<circle cx="122.5" cy="281.75" r="2" fill="#ABB2BF"/>
<circle cx="137.25" cy="281.75" r="2" fill="#ABB2BF"/>
<circle cx="152" cy="281.75" r="2" fill="#ABB2BF"/>
<circle cx="93" cy="296.5" r="2" fill="#ABB2BF"/>
<circle cx="107.75" cy="296.5" r="2" fill="#ABB2BF"/>
<circle cx="122.5" cy="296.5" r="2" fill="#ABB2BF"/>
<circle cx="137.25" cy="296.5" r="2" fill="#ABB2BF"/>
<circle cx="152" cy="296.5" r="2" fill="#ABB2BF"/>
<circle cx="93" cy="311.25" r="2" fill="#ABB2BF"/>
<circle cx="107.75" cy="311.25" r="2" fill="#ABB2BF"/>
<circle cx="122.5" cy="311.25" r="2" fill="#ABB2BF"/>
<circle cx="137.25" cy="311.25" r="2" fill="#ABB2BF"/>
<circle cx="152" cy="311.25" r="2" fill="#ABB2BF"/>
<circle cx="93" cy="326" r="2" fill="#ABB2BF"/>
<circle cx="107.75" cy="326" r="2" fill="#ABB2BF"/>
<circle cx="122.5" cy="326" r="2" fill="#ABB2BF"/>
<circle cx="137.25" cy="326" r="2" fill="#ABB2BF"/>
<circle cx="152" cy="326" r="2" fill="#ABB2BF"/>
<rect x="113.5" y="191.223" width="112.916" height="102.52" transform="rotate(-90 113.5 191.223)" stroke="#C778DD"/>
<rect x="194.98" y="157.416" width="112.916" height="102.52" transform="rotate(-90 194.98 157.416)" stroke="#C778DD"/>
<rect x="194.98" y="226.5" width="50.4458" height="43.2238" transform="rotate(-90 194.98 226.5)" stroke="#C778DD"/>
<rect x="78.5" y="215.5" width="25" height="23" stroke="#ABB2BF"/>
<circle cx="2" cy="43" r="2" fill="#ABB2BF"/>
<circle cx="16.75" cy="43" r="2" fill="#ABB2BF"/>
<circle cx="31.5" cy="43" r="2" fill="#ABB2BF"/>
<circle cx="46.25" cy="43" r="2" fill="#ABB2BF"/>
<circle cx="61" cy="43" r="2" fill="#ABB2BF"/>
<circle cx="2" cy="57.75" r="2" fill="#ABB2BF"/>
<circle cx="16.75" cy="57.75" r="2" fill="#ABB2BF"/>
<circle cx="31.5" cy="57.75" r="2" fill="#ABB2BF"/>
<circle cx="46.25" cy="57.75" r="2" fill="#ABB2BF"/>
<circle cx="61" cy="57.75" r="2" fill="#ABB2BF"/>
<circle cx="2" cy="72.5" r="2" fill="#ABB2BF"/>
<circle cx="16.75" cy="72.5" r="2" fill="#ABB2BF"/>
<circle cx="31.5" cy="72.5" r="2" fill="#ABB2BF"/>
<circle cx="46.25" cy="72.5" r="2" fill="#ABB2BF"/>
<circle cx="61" cy="72.5" r="2" fill="#ABB2BF"/>
<circle cx="2" cy="87.25" r="2" fill="#ABB2BF"/>
<circle cx="16.75" cy="87.25" r="2" fill="#ABB2BF"/>
<circle cx="31.5" cy="87.25" r="2" fill="#ABB2BF"/>
<circle cx="46.25" cy="87.25" r="2" fill="#ABB2BF"/>
<circle cx="61" cy="87.25" r="2" fill="#ABB2BF"/>
<circle cx="2" cy="102" r="2" fill="#ABB2BF"/>
<circle cx="16.75" cy="102" r="2" fill="#ABB2BF"/>
<circle cx="31.5" cy="102" r="2" fill="#ABB2BF"/>
<circle cx="46.25" cy="102" r="2" fill="#ABB2BF"/>
<circle cx="61" cy="102" r="2" fill="#ABB2BF"/>
</svg>
