<svg width="56" height="40" viewBox="0 0 56 40" fill="none" xmlns="http://www.w3.org/2000/svg">
<path d="M0.175 5.18333C0.527864 3.71081 1.39529 2.39604 2.63523 1.45436C3.87516 0.512679 5.4141 -0.000101648 7 1.51138e-08H49C50.5859 -0.000101648 52.1248 0.512679 53.3648 1.45436C54.6047 2.39604 55.4721 3.71081 55.825 5.18333L28 21.38L0.175 5.18333ZM0 8.99V32.67L20.3105 20.81L0 8.99ZM23.6635 22.7667L0.6685 36.19C1.23664 37.3309 2.13334 38.2948 3.25424 38.9693C4.37513 39.6438 5.67411 40.0012 7 40H49C50.3257 40.0003 51.6242 39.642 52.7444 38.967C53.8647 38.2919 54.7606 37.3277 55.328 36.1867L32.333 22.7633L28 25.2867L23.6635 22.7633V22.7667ZM35.6895 20.8133L56 32.67V8.99L35.6895 20.81V20.8133Z" fill="#ABB2BF"/>
</svg>
