<svg width="51" height="51" viewBox="0 0 51 51" fill="none" xmlns="http://www.w3.org/2000/svg">
<path d="M25.5 0C11.4112 0 0 11.6999 0 26.145C0 37.7142 7.29937 47.4858 17.4356 50.9501C18.7106 51.1788 19.1887 50.3945 19.1887 49.7082C19.1887 49.0872 19.1569 47.0283 19.1569 44.8387C12.75 46.0479 11.0925 43.2373 10.5825 41.7666C10.2956 41.015 9.0525 38.6946 7.96875 38.0736C7.07625 37.5834 5.80125 36.3742 7.93688 36.3415C9.945 36.3089 11.3794 38.2371 11.8575 39.0214C14.1525 42.9758 17.8181 41.8647 19.2844 41.1784C19.5075 39.4789 20.1769 38.3351 20.91 37.6815C15.2362 37.0278 9.3075 34.7728 9.3075 24.7724C9.3075 21.9291 10.2956 19.5761 11.9213 17.7459C11.6663 17.0923 10.7737 14.4124 12.1762 10.8175C12.1762 10.8175 14.3119 10.1312 19.1887 13.4974C21.2287 12.9091 23.3963 12.615 25.5638 12.615C27.7313 12.615 29.8988 12.9091 31.9388 13.4974C36.8156 10.0985 38.9513 10.8175 38.9513 10.8175C40.3538 14.4124 39.4613 17.0923 39.2063 17.7459C40.8319 19.5761 41.82 21.8964 41.82 24.7724C41.82 34.8055 35.8594 37.0278 30.1856 37.6815C31.11 38.4985 31.9069 40.0672 31.9069 42.5183C31.9069 46.0152 31.875 48.8258 31.875 49.7082C31.875 50.3945 32.3531 51.2115 33.6281 50.9501C38.6906 49.1983 43.0897 45.8627 46.2061 41.4129C49.3225 36.9631 50.9991 31.6231 51 26.145C51 11.6999 39.5888 0 25.5 0Z" fill="#ABB2BF"/>
</svg>
