<svg width="84" height="84" viewBox="0 0 84 84" fill="none" xmlns="http://www.w3.org/2000/svg">
<circle cx="2" cy="2" r="2" fill="#C778DD"/>
<circle cx="22" cy="2" r="2" fill="#C778DD"/>
<circle cx="42" cy="2" r="2" fill="#C778DD"/>
<circle cx="62" cy="2" r="2" fill="#C778DD"/>
<circle cx="82" cy="2" r="2" fill="#C778DD"/>
<circle cx="2" cy="28.6667" r="2" fill="#C778DD"/>
<circle cx="22" cy="28.6667" r="2" fill="#C778DD"/>
<circle cx="42" cy="28.6667" r="2" fill="#C778DD"/>
<circle cx="62" cy="28.6667" r="2" fill="#C778DD"/>
<circle cx="82" cy="28.6667" r="2" fill="#C778DD"/>
<circle cx="2" cy="55.3333" r="2" fill="#C778DD"/>
<circle cx="22" cy="55.3333" r="2" fill="#C778DD"/>
<circle cx="42" cy="55.3333" r="2" fill="#C778DD"/>
<circle cx="62" cy="55.3333" r="2" fill="#C778DD"/>
<circle cx="82" cy="55.3333" r="2" fill="#C778DD"/>
<circle cx="2" cy="82" r="2" fill="#C778DD"/>
<circle cx="22" cy="82" r="2" fill="#C778DD"/>
<circle cx="42" cy="82" r="2" fill="#C778DD"/>
<circle cx="62" cy="82" r="2" fill="#C778DD"/>
<circle cx="82" cy="82" r="2" fill="#C778DD"/>
</svg>
