<svg width="52" height="52" viewBox="0 0 52 52" fill="none" xmlns="http://www.w3.org/2000/svg">
<path d="M51.0625 25.9062C51.0625 32.5781 48.4121 38.9767 43.6944 43.6944C38.9767 48.4121 32.5781 51.0625 25.9062 51.0625C19.2344 51.0625 12.8358 48.4121 8.1181 43.6944C3.40038 38.9767 0.75 32.5781 0.75 25.9062C0.75 19.2344 3.40038 12.8358 8.1181 8.1181C12.8358 3.40038 19.2344 0.75 25.9062 0.75C32.5781 0.75 38.9767 3.40038 43.6944 8.1181C48.4121 12.8358 51.0625 19.2344 51.0625 25.9062V25.9062ZM26.8087 19.3216C24.3623 20.3404 19.4694 22.4473 12.1363 25.6421C10.9477 26.1138 10.322 26.5792 10.2654 27.032C10.171 27.7961 11.1301 28.098 12.4351 28.5099L12.9854 28.6829C14.2683 29.1011 15.9978 29.5885 16.894 29.6074C17.7116 29.6262 18.6204 29.2929 19.6235 28.6011C26.4754 23.9755 30.013 21.6391 30.2331 21.5888C30.3904 21.5511 30.6105 21.5071 30.7551 21.6391C30.9029 21.768 30.8872 22.0165 30.8715 22.0825C30.7771 22.4881 27.0131 25.9849 25.0667 27.7961C24.4598 28.3621 24.029 28.7615 23.9409 28.8527C23.747 29.0508 23.55 29.2458 23.3497 29.4376C22.1548 30.5885 21.2618 31.4501 23.3969 32.8588C24.4252 33.538 25.249 34.0946 26.0698 34.6543C26.9628 35.2644 27.8559 35.8713 29.013 36.6322C29.3055 36.8209 29.5885 37.0253 29.8621 37.2203C30.9029 37.9624 31.8431 38.629 32.9972 38.5221C33.6701 38.4592 34.365 37.8303 34.7172 35.9436C35.5505 31.4878 37.1888 21.8372 37.5662 17.8594C37.5892 17.5287 37.5755 17.1965 37.5253 16.8689C37.4957 16.6045 37.3677 16.3609 37.1668 16.1865C36.8807 15.989 36.5396 15.8867 36.192 15.8941C35.2487 15.9098 33.7927 16.4161 26.8087 19.3216V19.3216Z" fill="#ABB2BF"/>
</svg>
