<svg width="800" height="800" viewBox="0 0 800 800" fill="none" xmlns="http://www.w3.org/2000/svg">
<g clip-path="url(#clip0_547_2440)">
<path d="M771.667 86.2334L607 7.00005C597.694 2.5186 587.225 1.04157 577.042 2.7735C566.86 4.50543 557.468 9.36062 550.167 16.6667L234.833 304.333L97.5 200.067C91.3041 195.367 83.6588 192.984 75.89 193.331C68.1212 193.678 60.7188 196.733 54.9667 201.967L10.9 242.033C7.466 245.155 4.72169 248.959 2.84276 253.203C0.963827 257.446 -0.0083292 262.035 -0.011467 266.676C-0.0146048 271.317 0.951345 275.907 2.82454 280.153C4.69773 284.399 7.43689 288.207 10.8667 291.333L129.967 400L10.8667 508.667C7.43689 511.793 4.69773 515.601 2.82454 519.847C0.951345 524.093 -0.0146048 528.683 -0.011467 533.324C-0.0083292 537.965 0.963827 542.554 2.84276 546.797C4.72169 551.041 7.466 554.845 10.9 557.967L55 598C60.7522 603.233 68.1545 606.288 75.9233 606.635C83.6921 606.982 91.3374 604.6 97.5333 599.9L234.867 495.633L550.2 783.3C557.493 790.608 566.88 795.464 577.058 797.196C587.235 798.929 597.7 797.45 607 792.967L771.733 713.733C780.208 709.643 787.357 703.244 792.358 695.271C797.358 687.299 800.007 678.077 800 668.667V131.3C800.001 121.882 797.342 112.656 792.329 104.683C787.317 96.7096 780.154 90.3144 771.667 86.2334ZM600.133 581.6L360.867 400L600.133 218.4V581.6Z" fill="#3C99D4"/>
</g>
<defs>
<clipPath id="clip0_547_2440">
<rect width="800" height="800" fill="white"/>
</clipPath>
</defs>
</svg>
